<svg width="206" height="206" viewBox="0 0 206 206" fill="none" xmlns="http://www.w3.org/2000/svg">
<path d="M145.917 17.1667H171.667C173.943 17.1667 176.126 18.071 177.736 19.6807C179.346 21.2904 180.25 23.4736 180.25 25.75V180.25C180.25 182.526 179.346 184.71 177.736 186.319C176.126 187.929 173.943 188.833 171.667 188.833H34.3333C32.0569 188.833 29.8737 187.929 28.264 186.319C26.6543 184.71 25.75 182.526 25.75 180.25V25.75C25.75 23.4736 26.6543 21.2904 28.264 19.6807C29.8737 18.071 32.0569 17.1667 34.3333 17.1667H60.0833V0H77.25V17.1667H128.75V0H145.917V17.1667ZM60.0833 68.6667V85.8333H145.917V68.6667H60.0833ZM60.0833 103V120.167H145.917V103H60.0833Z" fill="#0D99FF"/>
</svg>
